<?xml version="1.0" encoding="utf-8"?>
<!-- Generator: Adobe Illustrator 21.1.0, SVG Export Plug-In . SVG Version: 6.00 Build 0)  -->
<svg version="1.1" id="Layer_1" xmlns="http://www.w3.org/2000/svg" xmlns:xlink="http://www.w3.org/1999/xlink" x="0px" y="0px"
	 viewBox="0 0 841.9 312" style="enable-background:new 0 0 841.9 312;" xml:space="preserve">
<g>
	<g>
		<path d="M372.7,82.4v2.9c0,9.7-1.7,21.9-17.8,21.9c-14.6,0-17.5-9.6-17.5-21.7v-41c0-12.7,5.7-20.5,17.7-20.5
			c14.4,0,17.2,9.8,17.2,20.9v3.4h-10.9v-4.6c0-5.8-1.2-9.8-6.4-9.8c-5,0-6.4,3.8-6.4,9.9v42.6c0,6.4,1.3,11,6.7,11
			c5.2,0,6.4-4.4,6.4-11v-4H372.7z"/>
		<path d="M405.3,25.2v81h-10.9v-81H405.3z"/>
		<path d="M437.9,35.2h-13.1V25.2h37v10.1h-13.1v70.9h-10.8V35.2z"/>
		<path d="M490.3,106.2V76.8c0-1-0.1-1.6-0.4-2.5l-15-49.1h12c3.5,13.8,7.8,29.8,9,38.1h0.1c1.7-8.7,5.8-24.7,9.1-38.1h11.5
			l-15.3,50c-0.1,0.6-0.2,1.3-0.2,2.8v28.2H490.3z"/>
		<path d="M557.8,35.2h-13.1V25.2h37v10.1h-13.1v70.9h-10.8V35.2z"/>
		<path d="M637,46v39c0,15-6.3,22.2-19.3,22.2c-12.9,0-18.3-7.6-18.3-22.1V45.9c0-14.8,7.2-21.8,19-21.8C630.6,24.1,637,31.6,637,46
			z M610.6,45.1v41.3c0,7.8,2.8,11,7.6,11c5.2,0,7.8-3.2,7.8-11.3V45.1c0-7.4-2.4-11.2-7.8-11.2C613.1,33.9,610.6,37.4,610.6,45.1z"
			/>
		<path d="M682.5,82.8v4.9c0,6.7,2.2,10.4,7.3,10.4c5.3,0,7-4.5,7-11.3c0-9-1.9-12.1-10.7-18.9c-8.6-6.8-13.2-11.2-13.2-23
			c0-10.5,3.2-20.9,17-20.9c13.7,0,16.5,9.6,16.5,19v4h-10.8v-3.8c0-6.1-1.1-9.9-5.8-9.9c-4.7,0-5.9,4.1-5.9,9.9
			c0,6.4,1.2,9.3,8.5,14.7c11.8,8.7,15.4,13.8,15.4,27.3c0,11.4-3.8,22.1-18.2,22.1c-14.2,0-17.8-9.1-17.8-19.8v-4.7H682.5z"/>
		<path d="M758.6,68.2h-17.9v28h20.5l-1.3,9.9h-30.1v-81h29.8v10.1h-18.9v23h17.9V68.2z"/>
		<path d="M791.5,82.8l-3.3,23.4h-11l13.2-81h15.4l13.7,81h-11.4l-3.6-23.4H791.5z M803.2,72.7c-2.2-15.4-4.1-28.9-5-37.3h-0.4
			c-0.4,6.5-3,24.2-4.9,37.3H803.2z"/>
	</g>
	<path d="M331.2,138.9h30.5c26.5,0,36.5,12.9,36.5,35.5v6.4c0,22.4-7.4,29.1-14.8,32.2c7.9,2.6,17.9,9.3,17.9,31.9v11.9
		c0,27.2-10.5,41.2-37.9,41.2h-32.2V138.9z M359.8,204.7c14.1,0,18.1-4.8,18.1-21.7v-6.7c0-13.6-4.8-19.5-17.4-19.5H352v47.9H359.8z
		 M352,280.5h9.1c15.3,0,19.3-7.2,19.3-24.1v-11c0-16.2-5-23.1-20.5-23.1H352V280.5z"/>
	<path d="M425.8,138.9h31.5c24.1,0,37.2,10,37.2,37.7v6.4c0,23.4-8.8,30.7-16.2,33.4c9.8,4.3,14.8,11.2,14.8,32.7
		c0,13.6-0.2,39.3,1.4,49.1H474c-2.1-9.8-1.7-36.2-1.7-47.7c0-19.8-2.9-24.8-17.6-24.8h-7.4v72.5h-21.5V138.9z M447.3,207.8h7.6
		c13.8,0,18.4-6.4,18.4-23.6V178c0-13.3-3.3-21.2-18.1-21.2h-7.9V207.8z"/>
	<path d="M541.2,138.9v159.2h-21.5V138.9H541.2z"/>
	<path d="M571,138.9h31.9c34.1,0,40.5,19.1,40.5,46.7v62c0,24.3-4.1,50.5-41,50.5H571V138.9z M592.4,279.8h8.6
		c17.4,0,20.7-10.5,20.7-28.8v-67.2c0-16.2-2.9-26.5-20.7-26.5h-8.6V279.8z"/>
	<path d="M738.3,298.1h-16.7c-0.5-2.6-1-9.3-1.2-12.6c-4.3,11-13.3,14.8-23.8,14.8c-22.6,0-30.3-16.7-30.3-42.9v-76.7
		c0-26.2,10.5-43.9,36.2-43.9c31.2,0,35.3,22.4,35.3,40.8v4.8h-21.2v-5.5c0-9.8-1.4-20.7-14.1-20.7c-9.8,0-14.3,6.7-14.3,21.5v81.8
		c0,14.1,3.8,22.2,13.8,22.2c12.4,0,14.8-11,14.8-28.8v-24.3h-15.5v-18.4h36.9V298.1z"/>
	<path d="M822.9,223.5h-35.3v55.1h40.3l-2.6,19.5h-59.1V138.9h58.6v19.8h-37.2V204h35.3V223.5z"/>
	<path d="M200.9,12.9"/>
	<path d="M297.8,290.6c-11-73.4-22.1-146.8-33.1-220.3c-4.2-28-21.9-43.9-47.3-52.8c-5.3-1.8-10.7-3.1-16.1-4.6
		c-2.1-0.7-7.7-1.2-14.3-1.2c-7.3,0-13.4,0.6-14.9,1.5c-8.4,2.7-17,4.7-24.9,8.4c-23.3,10.9-40,27.4-40.9,55
		c-0.3,7.4-3.3,9.5-10.5,10.2c-11.4,1.1-22.9,3-34,6C35,100,18.1,117.4,11.1,144.3c-0.5,1.8-1.4,3.4-2.2,5.1c0,4.6,0,9.3,0,13.9
		c28.7-2.5,57.4-4.9,87.7-7.5c-2.7,23.2-5.4,45.1-7.9,67.1c-2.8,25.6-5.4,51.3-8.1,76.9c25.4,0,50.9,0,76.3,0c0-47.3,0-94.6,0-142.6
		c20.5,0,37.6,0,56.4,0c1.2,47.5,2.5,95.1,3.7,142.6c27,0,54,0,81,0C298,296.7,298.2,293.6,297.8,290.6z M99.3,130.3
		c-14.1,0-27.9,0-43.9,0c13.9-12.1,29.5-11.2,45.6-13C100.4,122.2,100,125.5,99.3,130.3z M186.5,109.3
		c-12.9-0.1-23.4-11.9-23.6-26.4c-0.2-15,10.6-27.5,23.8-27.4c12.6,0.1,23.6,12.2,23.8,26.4C210.6,96.7,199.5,109.4,186.5,109.3z"/>
</g>
</svg>
